<svg xmlns="http://www.w3.org/2000/svg" version="1.1" xmlns:xlink="http://www.w3.org/1999/xlink" xmlns:svgjs="http://svgjs.dev/svgjs" width="2000" height="1503" viewBox="0 0 2000 1503"><g transform="matrix(1,0,0,1,-2.964290906318979,-2.4224350076384553)"><svg viewBox="0 0 330 248" data-background-color="#ffffff" preserveAspectRatio="xMidYMid meet" height="1503" width="2000" xmlns="http://www.w3.org/2000/svg" xmlns:xlink="http://www.w3.org/1999/xlink"><g id="tight-bounds" transform="matrix(1,0,0,1,0.4891079995426253,0.39992084111409554)"><svg viewBox="0 0 329.0217221401658 247.2" height="247.2" width="329.0217221401658"><rect width="329.0217840009148" height="247.20036932395953" fill="url(#23da9e40-611a-4477-947d-31fa1373e101)" mask="url(#a7402e22-76a4-44d9-91e5-f79a17494391)" data-fill-palette-color="tertiary"></rect><g><svg viewBox="0 0 329.0217221401658 247.2" height="247.2" width="329.0217221401658"><g><svg viewBox="0 0 329.0217221401658 247.2" height="247.2" width="329.0217221401658"><g><svg viewBox="0 0 329.0217221401658 247.2" height="247.2" width="329.0217221401658"><g id="textblocktransform"><svg viewBox="0 0 329.0217221401658 247.2" height="247.2" width="329.0217221401658" id="textblock"><g><svg viewBox="0 0 329.0217221401658 247.2" height="247.2" width="329.0217221401658"><path d="M328.251 53.02C326.705 27.36 322.296 20.227 322.296 20.227 308.762-6.202 291.871-0.506 276.697 3.292 249.906 3.446 223.224 9.091 196.495 12.119 140.392 12.581 83.81 4.986 27.986 23.717 22.743 29.464-5.44 24.846 0.933 56.304 2.603 69.39 8.698 83.913 8.512 95.922 9.347 98.026 10.507 93.202 11.002 96.23 12.735 104.39 15.565 100.541 17.886 105.365 14.653 118.246 16.973 128.971 19.185 140.21 15.287 143.135 10.291 141.749 8.048 151.449 7.816 158.479 6.563 157.145 5.186 156.837 4.181 156.632 2.155 157.402 2.495 159.608 3.655 167.152-1.326 171.514 1.799 178.904-0.351 186.91 3.284 193.838 2.789 202.511 2.727 204.255 3.067 205.744 3.609 206.154 6.006 208.361 2.51 212.672 2.882 217.342 27.476 249.262 54.158 227.195 79.356 241.872 85.899 231.608 80.98 245.516 83.594 243.36 85.636 240.846 87.12 251.263 89.425 245.362 89.781 243.668 89.24 239.665 90.508 240.435 91.173 240.846 91.761 240.743 91.854 238.382 91.993 234.841 90.771 237.048 90.446 235.201 93.957 225.861 93.091 248.081 96.386 247.158 96.231 244.438 95.272 240.538 97.237 241.051 99.186 237.151 99.247 233.918 100.98 242.693 101.042 244.592 101.351 245.926 101.846 246.85 107.26 237.305 112.643 250.237 118.319 245.926 121.8 241.205 125.141 248.492 128.668 246.696 129.905 245.259 131.158 242.693 132.349 247.004 146.935 247.928 162.481 244.079 176.309 247.158 213.262 241.41 252.752 249.518 291.716 241.923 300.904 238.998 310.448 234.841 319.404 231.506 319.404 231.506 326.658 222.371 326.658 181.316S328.205 145.393 328.437 112.703C328.669 80.013 329.752 78.679 328.205 53.02Z" opacity="1" fill="url(#23da9e40-611a-4477-947d-31fa1373e101)" data-fill-palette-color="tertiary"></path><g transform="matrix(1,0,0,1,55.76832000000002,26.230666666666668)"><svg width="217.4850821401658" viewBox="0.22 -32.4 36.18 32.4" height="194.73866666666666" data-palette-color="#ffffff"><path d="M25.49 0L24.12-3.54 13.53-3.54 15.77-9.96 21.63-9.96 12.96-32.4 23.49-32.4 36.4 0 25.49 0ZM16.58-18.07L10.64 0 0.22 0 11.79-30.93 16.58-18.07Z" opacity="1" transform="matrix(1,0,0,1,0,0)" fill="#ffffff" class="wordmark-text-0" data-fill-palette-color="quaternary" id="text-0"></path></svg></g></svg></g></svg></g></svg></g><g></g></svg></g></svg></g><defs></defs><mask id="a7402e22-76a4-44d9-91e5-f79a17494391"><g id="SvgjsG6811"><svg viewBox="0 0 329.0217221401658 247.2" height="247.2" width="329.0217221401658"><g><svg viewBox="0 0 329.0217221401658 247.2" height="247.2" width="329.0217221401658"><g><svg viewBox="0 0 329.0217221401658 247.2" height="247.2" width="329.0217221401658"><g><svg viewBox="0 0 329.0217221401658 247.2" height="247.2" width="329.0217221401658"><g id="SvgjsG6810"><svg viewBox="0 0 329.0217221401658 247.2" height="247.2" width="329.0217221401658" id="SvgjsSvg6809"><g><svg viewBox="0 0 329.0217221401658 247.2" height="247.2" width="329.0217221401658"><path d="M328.251 53.02C326.705 27.36 322.296 20.227 322.296 20.227 308.762-6.202 291.871-0.506 276.697 3.292 249.906 3.446 223.224 9.091 196.495 12.119 140.392 12.581 83.81 4.986 27.986 23.717 22.743 29.464-5.44 24.846 0.933 56.304 2.603 69.39 8.698 83.913 8.512 95.922 9.347 98.026 10.507 93.202 11.002 96.23 12.735 104.39 15.565 100.541 17.886 105.365 14.653 118.246 16.973 128.971 19.185 140.21 15.287 143.135 10.291 141.749 8.048 151.449 7.816 158.479 6.563 157.145 5.186 156.837 4.181 156.632 2.155 157.402 2.495 159.608 3.655 167.152-1.326 171.514 1.799 178.904-0.351 186.91 3.284 193.838 2.789 202.511 2.727 204.255 3.067 205.744 3.609 206.154 6.006 208.361 2.51 212.672 2.882 217.342 27.476 249.262 54.158 227.195 79.356 241.872 85.899 231.608 80.98 245.516 83.594 243.36 85.636 240.846 87.12 251.263 89.425 245.362 89.781 243.668 89.24 239.665 90.508 240.435 91.173 240.846 91.761 240.743 91.854 238.382 91.993 234.841 90.771 237.048 90.446 235.201 93.957 225.861 93.091 248.081 96.386 247.158 96.231 244.438 95.272 240.538 97.237 241.051 99.186 237.151 99.247 233.918 100.98 242.693 101.042 244.592 101.351 245.926 101.846 246.85 107.26 237.305 112.643 250.237 118.319 245.926 121.8 241.205 125.141 248.492 128.668 246.696 129.905 245.259 131.158 242.693 132.349 247.004 146.935 247.928 162.481 244.079 176.309 247.158 213.262 241.41 252.752 249.518 291.716 241.923 300.904 238.998 310.448 234.841 319.404 231.506 319.404 231.506 326.658 222.371 326.658 181.316S328.205 145.393 328.437 112.703C328.669 80.013 329.752 78.679 328.205 53.02Z" opacity="1" fill="white"></path><g transform="matrix(1,0,0,1,55.76832000000002,26.230666666666668)"><svg width="217.4850821401658" viewBox="0.22 -32.4 36.18 32.4" height="194.73866666666666" data-palette-color="#ffffff"><path d="M25.49 0L24.12-3.54 13.53-3.54 15.77-9.96 21.63-9.96 12.96-32.4 23.49-32.4 36.4 0 25.49 0ZM16.58-18.07L10.64 0 0.22 0 11.79-30.93 16.58-18.07Z" opacity="1" transform="matrix(1,0,0,1,0,0)" fill="black" class="wordmark-text-0" id="SvgjsPath6808"></path></svg></g></svg></g></svg></g></svg></g><g></g></svg></g></svg></g><defs><mask></mask></defs></svg><rect width="329.0217221401658" height="247.2" fill="black" stroke="none" visibility="hidden"></rect></g></mask><linearGradient x1="0" x2="1" y1="0.5" y2="0.5" id="23da9e40-611a-4477-947d-31fa1373e101"><stop stop-color="#f00b51" offset="0"></stop><stop stop-color="#730062" offset="1"></stop></linearGradient></svg><rect width="329.0217221401658" height="247.2" fill="none" stroke="none" visibility="hidden"></rect></g></svg></g></svg>